<svg width="113.6" height="71.401" viewBox="0 0 113.6 71.401" xmlns="http://www.w3.org/2000/svg">
    <style>
        .b {
            stroke: white;
            fill: white;
        }

        @media (prefers-color-scheme: dark) {
            .b {
                stroke: black;
                fill: black;
            }
        }
    </style>
    <g id="svgGroup" stroke-linecap="round" fill-rule="evenodd" font-size="9pt" stroke="#000"
        stroke-width="0.25mm">
        <path
            d="M 14.2 64 L 12.4 64 L 12.4 70 L 0 70 L 0 0 L 12.6 0 L 12.6 26.1 L 14.4 26.1 A 13.423 13.423 0 0 1 16.068 23.928 A 16.904 16.904 0 0 1 17.35 22.7 A 11.845 11.845 0 0 1 19.348 21.321 Q 20.349 20.764 21.557 20.301 A 21.701 21.701 0 0 1 22.25 20.05 Q 24.677 19.214 28.023 19.044 A 34.918 34.918 0 0 1 29.8 19 Q 35.8 19 40.9 21.95 Q 46 24.9 49.1 30.6 Q 52.114 36.141 52.198 43.951 A 41.812 41.812 0 0 1 52.2 44.4 L 52.2 46 Q 52.2 53.807 49.32 59.385 A 21.877 21.877 0 0 1 49.1 59.8 A 23.337 23.337 0 0 1 44.98 65.342 A 20.291 20.291 0 0 1 40.9 68.45 Q 35.8 71.4 29.8 71.4 A 31.397 31.397 0 0 1 25.96 71.181 Q 24.099 70.951 22.563 70.479 A 12.448 12.448 0 0 1 19.5 69.1 Q 16.408 67.124 14.717 64.78 A 11.842 11.842 0 0 1 14.2 64 Z M 39.6 45.7 L 39.6 44.7 Q 39.6 37.5 35.75 33.75 A 13.092 13.092 0 0 0 27.355 30.051 A 17.497 17.497 0 0 0 26 30 A 14.792 14.792 0 0 0 20.98 30.824 A 13.037 13.037 0 0 0 16.3 33.75 A 11.98 11.98 0 0 0 13.146 39.06 Q 12.4 41.55 12.4 44.7 L 12.4 45.7 A 21.225 21.225 0 0 0 12.8 49.959 Q 13.318 52.483 14.504 54.416 A 11.254 11.254 0 0 0 16.3 56.65 A 13.301 13.301 0 0 0 25.282 60.385 A 17.408 17.408 0 0 0 26 60.4 A 14.792 14.792 0 0 0 31.02 59.576 A 13.037 13.037 0 0 0 35.7 56.65 A 11.98 11.98 0 0 0 38.854 51.34 Q 39.6 48.85 39.6 45.7 Z"
            id="0" vector-effect="non-scaling-stroke" stroke-width="0.25mm" class="b" />
        <path
            d="M 61.4 46 L 61.4 44.4 Q 61.4 36.593 64.28 31.015 A 21.877 21.877 0 0 1 64.5 30.6 A 23.337 23.337 0 0 1 68.62 25.058 A 20.291 20.291 0 0 1 72.7 21.95 Q 77.8 19 83.8 19 A 32.087 32.087 0 0 1 86.971 19.148 Q 88.517 19.301 89.841 19.615 A 15.927 15.927 0 0 1 91.35 20.05 Q 94.004 20.964 95.787 22.294 A 11.085 11.085 0 0 1 96.3 22.7 A 14.368 14.368 0 0 1 97.929 24.297 A 10.777 10.777 0 0 1 99.2 26.1 L 101 26.1 L 101 0 L 113.6 0 L 113.6 70 L 101.2 70 L 101.2 64 L 99.4 64 Q 97.859 66.538 94.799 68.664 A 24.059 24.059 0 0 1 94.15 69.1 A 12.164 12.164 0 0 1 91.03 70.502 Q 89.494 70.965 87.619 71.189 A 32.228 32.228 0 0 1 83.8 71.4 Q 77.9 71.4 72.75 68.45 A 21.015 21.015 0 0 1 65.519 61.514 A 25.718 25.718 0 0 1 64.5 59.8 Q 61.486 54.259 61.402 46.449 A 41.812 41.812 0 0 1 61.4 46 Z M 101.2 45.7 L 101.2 44.7 Q 101.2 37.5 97.35 33.75 A 13.092 13.092 0 0 0 88.955 30.051 A 17.497 17.497 0 0 0 87.6 30 A 14.792 14.792 0 0 0 82.58 30.824 A 13.037 13.037 0 0 0 77.9 33.75 A 11.98 11.98 0 0 0 74.746 39.06 Q 74 41.55 74 44.7 L 74 45.7 A 21.225 21.225 0 0 0 74.4 49.959 Q 74.918 52.483 76.104 54.416 A 11.254 11.254 0 0 0 77.9 56.65 A 13.301 13.301 0 0 0 86.882 60.385 A 17.408 17.408 0 0 0 87.6 60.4 A 14.792 14.792 0 0 0 92.62 59.576 A 13.037 13.037 0 0 0 97.3 56.65 A 11.98 11.98 0 0 0 100.454 51.34 Q 101.2 48.85 101.2 45.7 Z"
            id="1" vector-effect="non-scaling-stroke" stroke="#16834a" stroke-width="0.25mm"
            fill="#16834a" />
    </g>
</svg>